#!OML:ASF H:\MichaelJackson\Top Level 1\Subject 1\Session 1\male.ASF
:FULLY-SPECIFIED
:DEGREES
414
root 5.20545 16.654 -12.668 1.98813 -4.23771 -8.10031
lowerback 2.57034 2.87171 7.19173
upperback 2.35037 3.93342 0.933346
thorax 1.41041 2.06681 -3.09024
lowerneck -5.30728 -3.58499 3.80706
upperneck 6.26884 -5.21769 1.59517
head 2.86501 -2.44146 -0.353087
rclavicle -2.25124e-014 5.96354e-015
rhumerus -39.4348 9.75181 -97.9821
rradius 71.6518
rwrist 1.4842
rhand 5.52098 -20.6945
rfingers 7.12502
rthumb 30.8668 311.879
lclavicle -2.25124e-014 5.96354e-015
lhumerus -52.2523 -10.2159 98.2236
lradius 54.7149
lwrist 33.4024
lhand -18.1699 17.8096
lfingers 7.12502
lthumb 8.10632 47.6341
rfemur -8.56807 0.559696 21.8083
rtibia 31.505
rfoot -25.3595 7.75398
rtoes -19.5474
lfemur -35.0659 3.09293 -1.79889
ltibia 32.4834
lfoot 9.30031 5.32046
ltoes 15.4932
415
root 5.24386 16.6507 -12.5262 1.9875 -4.39729 -8.08479
lowerback 2.38353 2.80212 7.34191
upperback 2.28859 3.82971 0.907751
thorax 1.45239 2.01733 -3.19158
lowerneck -5.30585 -3.5242 3.81464
upperneck 6.42767 -5.13597 1.51064
head 2.91722 -2.40019 -0.380751
rclavicle -3.90612e-014 8.34896e-015
rhumerus -39.764 8.71153 -97.7494
rradius 71.4334
rwrist 1.03301
rhand 3.0649 -20.903
rfingers 7.12502
rthumb 28.5226 311.252
lclavicle -3.90612e-014 8.34896e-015
lhumerus -52.2987 -10.6199 98.2653
lradius 54.5405
lwrist 33.11
lhand -17.9515 17.9511
lfingers 7.12502
lthumb 8.31715 47.7674
rfemur -7.75956 1.18646 21.7371
rtibia 31.0774
rfoot -25.4415 6.8088
rtoes -20.2225
lfemur -34.7485 3.00106 -1.83658
ltibia 32.6034
lfoot 8.88567 5.95019
ltoes 13.7798
416
root 5.28424 16.6449 -12.3839 1.97417 -4.52767 -8.04079
lowerback 2.20787 2.74731 7.46671
upperback 2.21043 3.74674 0.874659
thorax 1.4716 1.97675 -3.28817
lowerneck -5.28125 -3.48867 3.81347
upperneck 6.59537 -5.08659 1.43169
head 2.96821 -2.37503 -0.405955
rclavicle -4.39811e-014 1.07344e-014
rhumerus -40.1768 7.64239 -97.492
rradius 71.2782
rwrist 0.908422
rhand 0.260184 -21.0362
rfingers 7.12502
rthumb 25.8396 310.699
lclavicle -4.39811e-014 1.07344e-014
lhumerus -52.3547 -11.028 98.319
lradius 54.3379
lwrist 32.7544
lhand -17.7382 18.0163
lfingers 7.12502
lthumb 8.52301 47.8243
rfemur -6.98637 1.76705 21.6429
rtibia 30.7478
rfoot -25.4955 5.84241
rtoes -20.7871
lfemur -34.4556 3.06063 -2.0073
ltibia 32.9232
lfoot 8.27416 6.5214
ltoes 11.6219
417
root 5.32619 16.6369 -12.2414 1.94714 -4.62796 -7.96248
lowerback 2.04293 2.70307 7.5504
upperback 2.12391 3.67851 0.834807
thorax 1.47501 1.94219 -3.37012
lowerneck -5.24386 -3.47336 3.80212
upperneck 6.76082 -5.06345 1.36472
head 3.0164 -2.36292 -0.42627
rclavicle 6.48535e-014 -1.86858e-014
rhumerus -40.6399 6.56825 -97.2112
rradius 71.1549
rwrist 1.0738
rhand -2.806 -21.1517
rfingers 7.12502
rthumb 22.9001 310.188
lclavicle 6.48535e-014 -1.86858e-014
lhumerus -52.3958 -11.4194 98.3742
lradius 54.1095
lwrist 32.393
lhand -17.5831 18.0224
lfingers 7.12502
lthumb 8.6727 47.8243
rfemur -6.26878 2.25032 21.5248
rtibia 30.5523
rfoot -25.5255 4.864
rtoes -21.1967
lfemur -34.1747 3.24235 -2.29665
ltibia 33.3934
lfoot 7.47812 6.98468
ltoes 9.18222
418
root 5.36988 16.6269 -12.0995 1.91089 -4.71752 -7.85043
lowerback 1.89211 2.67409 7.5947
upperback 2.03089 3.63173 0.785459
thorax 1.46395 1.91716 -3.44108
lowerneck -5.19391 -3.47584 3.78469
upperneck 6.91344 -5.0638 1.31547
head 3.05823 -2.36239 -0.440287
rclavicle -1.03865e-014 7.95139e-015
rhumerus -41.1321 5.49777 -96.9095
rradius 71.0419
rwrist 1.4608
rhand -6.08747 -21.3181
rfingers 7.12502
rthumb 19.7483 309.665
lclavicle -1.03865e-014 7.95139e-015
lhumerus -52.4193 -11.7923 98.4279
lradius 53.8777
lwrist 32.0886
lhand -17.5516 17.9763
lfingers 7.12502
lthumb 8.70303 47.7769
rfemur -5.63741 2.57278 21.3826
rtibia 30.5291
rfoot -25.5236 3.82666
rtoes -21.6096
lfemur -33.8927 3.51186 -2.67606
ltibia 33.9605
lfoot 6.51827 7.3466
ltoes 6.76921
419
root 5.41439 16.6155 -11.9581 1.85531 -4.7662 -7.70533
lowerback 1.74613 2.6405 7.57511
upperback 1.95153 3.5779 0.742369
thorax 1.4587 1.88819 -3.47023
lowerneck -5.1499 -3.4847 3.74258
upperneck 7.04106 -5.0717 1.28566
head 3.09372 -2.36609 -0.443902
rclavicle -1.43125e-014 1.27222e-014
rhumerus -41.6125 4.4814 -96.5813
rradius 70.916
rwrist 2.00792
rhand -9.48321 -21.6225
rfingers 7.12502
rthumb 16.4813 309.058
lclavicle -1.43125e-014 1.27222e-014
lhumerus -52.4054 -12.0984 98.4723
lradius 53.6631
lwrist 31.865
lhand -17.6745 17.8957
lfingers 7.12502
lthumb 8.58451 47.7012
rfemur -5.09867 2.66866 21.229
rtibia 30.718
rfoot -25.4722 2.68912
rtoes -21.9692
lfemur -33.5969 3.8181 -3.12497
ltibia 34.5711
lfoot 5.42202 7.59073
ltoes 4.53574
